<svg width="21" height="20" viewBox="0 0 21 20" fill="none" xmlns="http://www.w3.org/2000/svg">
    <path fill-rule="evenodd" clip-rule="evenodd" d="M0.5 10C0.5 4.47715 4.97715 0 10.5 0C16.0228 0 20.5 4.47715 20.5 10C20.5 15.5228 16.0228 20 10.5 20C4.97715 20 0.5 15.5228 0.5 10ZM5.5 6.42021L5.50373 9.82884L9.58847 9.80558L9.58668 5.86365L5.5 6.42021ZM5.50294 10.2333L9.58474 10.2598L9.58791 14.2051L5.50317 13.6436L5.50294 10.2333ZM10.0801 5.79084V9.79847L15.4987 9.75545V5L10.0801 5.79084ZM10.0725 10.288L15.5 10.2969L15.4987 15.0309L10.0801 14.2661L10.0725 10.288Z" fill="white"/>
</svg>
